# xmcd
#
# Track frame offsets:
#	150
#	16875
#	36075
#	56550
#	76875
#	97200
#	120975
#	137550
#	155625
#	171375
#	194700
#	209025
#	226725
#	242100
#	259500
#	276300
#
# Disc length: 3931 seconds
#
# Revision: 4
# Processed by: cddbd v1.5.2PL0 Copyright (c) Steve Scherf et al.
# Submitted via: audiograbber 1.83.01
#
DISCID=e30f5910
DTITLE=Various Artist - Country Hits 9
DYEAR=2011
DGENRE=karaoke
TTITLE0=Blake Shelton - Honey Bee
TTITLE1=The Band Perry - If I Die Young
TTITLE2=Jason Aldean and Kelly Clarkson - Don't You Wanna Stay
TTITLE3=Taylor Swift - Mean
TTITLE4=Tim Mcgraw - Felt Good On My Lips
TTITLE5=Sara Evans - A Little Bit Stronger
TTITLE6=Blake Shelton - All About Tonight
TTITLE7=Lady Antebellum - Just A Kiss
TTITLE8=Thompson Square - Are You Gonna Kiss Me Or Not
TTITLE9=Taylor Swift - Back To December
TTITLE10=Luke Bryan - Rain Is A Good Thing
TTITLE11=The Band Perry - You Lie
TTITLE12=Billy Currington - Pretty Good At Drinkin' Beer
TTITLE13=Reba - Turn On The Radio 
TTITLE14=Rodney Atkins - Farmer's Daughter
TTITLE15=Taylor Swift - Mine
EXTD=
EXTT0=
EXTT1=
EXTT2=
EXTT3=
EXTT4=
EXTT5=
EXTT6=
EXTT7=
EXTT8=
EXTT9=
EXTT10=
EXTT11=
EXTT12=
EXTT13=
EXTT14=
EXTT15=
PLAYORDER=
